Coordinates
version=1
nRows=7
nColumns=40
inDegrees=yes

Units are S.I. units (second, meters, Newtons, ...)
Angles are in degrees.

endheader
time	pelvis_tilt	pelvis_list	pelvis_rotation	pelvis_tx	pelvis_ty	pelvis_tz	hip_flexion_r	hip_adduction_r	hip_rotation_r	knee_angle_r	knee_angle_r_beta	ankle_angle_r	subtalar_angle_r	mtp_angle_r	hip_flexion_l	hip_adduction_l	hip_rotation_l	knee_angle_l	knee_angle_l_beta	ankle_angle_l	subtalar_angle_l	mtp_angle_l	lumbar_extension	lumbar_bending	lumbar_rotation	arm_flex_r	arm_add_r	arm_rot_r	elbow_flex_r	pro_sup_r	wrist_flex_r	wrist_dev_r	arm_flex_l	arm_add_l	arm_rot_l	elbow_flex_l	pro_sup_l	wrist_flex_l	wrist_dev_l
     40.23528571	     -2.81904188	     -6.58934557	      5.07326578	      0.95795809	      0.93313731	      0.50681817	      4.39801055	      8.07782801	    -20.55833887	      6.12233156	      6.12233156	      8.05538438	      7.05626656	     -7.32975315	     33.27467440	    -12.53813068	     -2.07781566	     32.42814586	     32.42814586	      9.02035679	    -15.79272229	     11.83466056	     -8.71503542	      7.90433550	      4.64508347	     29.29873838	    -16.86924429	     -4.51201695	     80.14982587	     44.73714815	      0.00000000	      0.00000000	     -4.83456909	     -7.85353010	      0.07965964	     24.32356895	     45.46219251	      0.00000000	      0.00000000
     40.24807143	     -2.99206668	     -6.65948474	      5.15585326	      0.95714338	      0.93254252	      0.50668030	      3.90884834	      8.23403661	    -20.71575326	      5.73940636	      5.73940636	      8.30949423	      7.49244664	     -7.44772621	     33.22471036	    -12.23992024	     -2.35479751	     28.39923959	     28.39923959	      9.19541766	    -13.59968900	     12.12528500	     -8.48550238	      8.06714271	      4.53504760	     30.95050424	    -16.51057947	     -4.55726183	     81.98130688	     44.69190886	      0.00000000	      0.00000000	     -5.84508978	     -7.87330136	      0.19075324	     24.09689138	     45.42417730	      0.00000000	      0.00000000
     40.26085714	     -3.07800961	     -6.82198175	      5.24107490	      0.95641125	      0.93196048	      0.50653443	      3.33162380	      8.48413679	    -21.01537484	      5.37084549	      5.37084549	      8.55854832	      8.20454805	     -7.52423086	     33.11199179	    -12.10183066	     -2.73618866	     24.68716874	     24.68716874	      9.32525445	    -10.97697633	     12.17827711	     -8.41615734	      8.30539168	      4.32429401	     32.43993581	    -16.05283118	     -4.57073128	     84.57514098	     44.62346323	      0.00000000	      0.00000000	     -6.92911710	     -7.85615397	      0.31490994	     24.16471639	     45.37994608	      0.00000000	      0.00000000
     40.27364286	     -3.18349308	     -6.91899630	      5.29609421	      0.95572003	      0.93128839	      0.50624005	      2.81628915	      8.63870282	    -21.26185222	      5.10450744	      5.10450744	      8.90840036	      8.82481768	     -7.54863793	     33.03120310	    -11.91622432	     -3.26777730	     21.37507130	     21.37507130	      9.39540247	     -8.39726330	     12.24827896	     -8.30909009	      8.47218974	      4.27530658	     33.67414857	    -15.68937398	     -4.61719694	     87.16655321	     44.55666943	      0.00000000	      0.00000000	     -7.89828252	     -7.83282017	      0.43959700	     24.37425367	     45.33751127	      0.00000000	      0.00000000
     40.28642857	     -3.32067351	     -7.10863079	      5.33389269	      0.95507723	      0.93054482	      0.50576803	      2.37135938	      8.85004566	    -21.63084278	      4.92270027	      4.92270027	      9.37708438	      9.68415896	     -7.25698543	     33.12953920	    -11.86270235	     -3.90298161	     18.70270602	     18.70270602	      9.38444197	     -5.73291695	     12.12914025	     -8.19001418	      8.77978137	      4.62820912	     34.41742316	    -15.76293299	     -4.96169044	     90.80783625	     44.48393250	      0.00000000	      0.00000000	     -8.81330886	     -7.85926592	      0.83265903	     25.19165636	     45.25098969	      0.00000000	      0.00000000
     40.29921429	     -3.43869640	     -7.11848043	      5.34973738	      0.95440678	      0.93000589	      0.50520087	      1.97694099	      8.85969198	    -21.59795199	      4.88775785	      4.88775785	      9.75786800	      9.83560171	     -7.15822603	     33.06972719	    -11.56595948	     -4.41406156	     16.30215224	     16.30215224	      9.19943696	     -3.99328904	     12.51523805	     -8.07684937	      8.83324465	      4.56179396	     35.62956001	    -15.30540966	     -5.07350369	     92.73599481	     44.44401770	      0.00000000	      0.00000000	     -9.45691498	     -7.75733349	      1.10435373	     25.11165782	     45.19677047	      0.00000000	      0.00000000
     40.31200000	     -3.56034300	     -7.12504444	      5.35326107	      0.95377198	      0.92946710	      0.50452586	      1.60686526	      8.85086692	    -21.54995120	      4.89507408	      4.89507408	     10.16650166	      9.95193759	     -7.02351588	     33.11138443	    -11.29978165	     -4.98382188	     14.59010618	     14.59010618	      8.96930965	     -2.61772589	     12.81186420	     -7.93233118	      8.86496201	      4.49527978	     36.65817809	    -14.88594138	     -5.11577238	     94.67053899	     44.39936504	      0.00000000	      0.00000000	    -10.03468217	     -7.65419298	      1.32267391	     25.07349333	     45.15240281	      0.00000000	      0.00000000
